<svg xmlns="http://www.w3.org/2000/svg"
 version="1.1" xmlns:xlink="http://www.w3.org/1999/xlink" 
 xmlns:svgjs="http://svgjs.dev/svgjs" width="2000" height="1500" viewBox="0 0 2000 1500">
 <rect width="2000" height="1500" fill="#ffffff"></rect><g transform="matrix(0.4231908590774439,0,0,0.4231908590774439,576.5633310589437,250.4048582995951)"><svg viewBox="0 0 209 247" data-background-color="#000000" preserveAspectRatio="xMidYMid meet" height="2363" width="2000" xmlns="http://www.w3.org/2000/svg" xmlns:xlink="http://www.w3.org/1999/xlink"><g id="tight-bounds" transform="matrix(1,0,0,1,0.060698689956325325,-0.09999999999999432)"><svg viewBox="0 0 208.87860262008735 247.2" height="247.2" width="208.87860262008735"><g><svg viewBox="0 0 208.87860262008735 247.2" height="247.2" width="208.87860262008735"><g><svg viewBox="0 0 208.87860262008735 247.2" height="247.2" width="208.87860262008735"><g id="textblocktransform"><svg viewBox="0 0 208.87860262008735 247.2" height="247.2" width="208.87860262008735" id="textblock"><g><svg viewBox="0 0 208.87860262008735 247.2" height="247.2" width="208.87860262008735"><g transform="matrix(1,0,0,1,0,0)"><svg width="208.87860262008735" viewBox="0.81 -33.54 28.34 33.54" height="247.2" data-palette-color="url(#50455c6b-2fcc-489e-8200-3e5ebda0d5a9)"></svg></g></svg></g></svg></g></svg></g></svg></g><defs></defs><mask id="8ade5d8f-381f-4b61-9925-4a8ffb9c5ec9"><g id="SvgjsG7539"><svg viewBox="0 0 208.87860262008735 247.2" height="247.2" width="208.87860262008735"><g><svg viewBox="0 0 208.87860262008735 247.2" height="247.2" width="208.87860262008735"><g><svg viewBox="0 0 208.87860262008735 247.2" height="247.2" width="208.87860262008735"><g id="SvgjsG7538"><svg viewBox="0 0 208.87860262008735 247.2" height="247.2" width="208.87860262008735" id="SvgjsSvg7537"><g><svg viewBox="0 0 208.87860262008735 247.2" height="247.2" width="208.87860262008735"><g transform="matrix(1,0,0,1,0,0)"><svg width="208.87860262008735" viewBox="0.81 -33.54 28.34 33.54" height="247.2" data-palette-color="url(#50455c6b-2fcc-489e-8200-3e5ebda0d5a9)"><path d="M29.15-33.54L29.15-25.56 26.2-25.56 25.49-30.25Q25.32-31.1 24.66-31.1L24.66-31.1 17.5-31.1 17.5-3.44Q17.5-3.08 17.76-2.73 18.02-2.39 18.55-2.34L18.55-2.34 21.75-2.15 21.75 0 8.2 0 8.2-2.15 11.4-2.34Q11.94-2.39 12.19-2.73 12.45-3.08 12.45-3.44L12.45-3.44 12.45-31.1 5.25-31.1Q4.47-31.1 4.39-30.25L4.39-30.25 3.71-25.56 0.81-25.56 0.81-33.54 29.15-33.54Z" opacity="1" transform="matrix(1,0,0,1,0,0)" fill="white" class="wordmark-text-0" id="SvgjsPath7536"></path></svg></g></svg></g></svg></g></svg></g></svg></g><defs><mask></mask></defs></svg><rect width="208.87860262008735" height="247.2" fill="black" stroke="none" visibility="hidden"></rect></g></mask><linearGradient x1="0.054" x2="0.941" y1="0.5" y2="0.5" id="50455c6b-2fcc-489e-8200-3e5ebda0d5a9"><stop stop-color="#8c8c8c" offset="0"></stop><stop stop-color="#e3e4e5" offset="0.498"></stop><stop stop-color="#8c8c8c" offset="1"></stop></linearGradient><rect width="208.87860262008735" height="247.2" fill="#000000" mask="url(#8ade5d8f-381f-4b61-9925-4a8ffb9c5ec9)" data-fill-palette-color="primary"></rect></svg><rect width="208.87860262008735" height="247.2" fill="none" stroke="none" visibility="hidden"></rect></g></svg></g></svg>